<svg width="47" height="40" viewBox="0 0 47 40" fill="none" xmlns="http://www.w3.org/2000/svg">
<path d="M25.4885 0C29.6507 0 30.53 0.0405191 32.6562 0.120057C35.1067 0.220605 36.7959 0.559766 38.2526 1.061C39.7788 1.56074 41.0743 2.26157 42.3455 3.3616C43.641 4.46162 44.4266 5.58265 45.0284 6.90328C45.6059 8.16388 45.977 9.62407 46.0915 11.7656C46.2077 13.667 46.2302 14.4068 46.2302 18.4092V21.6103C46.2302 25.6127 46.2077 26.3525 46.0915 28.2539C46.0516 30.0023 45.6649 31.6605 44.9885 33.1973L45.0267 33.0967C44.4249 34.4173 43.6393 35.5384 42.368 36.6384C41.0726 37.7594 39.7788 38.4393 38.2526 38.96C36.7959 39.4597 35.1084 39.7809 32.6562 39.8799C30.4589 39.9805 29.5813 40 24.956 40H21.2794C16.6541 40 15.7991 39.9805 13.5793 39.8799C11.5589 39.8454 9.6425 39.5108 7.86662 38.9255L7.98281 38.9585C6.38209 38.4288 5.01722 37.6469 3.89169 36.6579L3.88995 36.6564C2.73493 35.6779 1.82271 34.4894 1.23306 33.1613L1.20705 33.0937C0.570572 31.659 0.183832 29.9993 0.143944 28.2659V28.2509C0.0520278 26.6872 0 24.8548 0 23.0134C0 22.6743 0.00173389 22.3351 0.00520241 21.9974V22.0485V17.947C0.00520241 14.3453 0.0520278 13.5845 0.143944 11.7446C0.260139 9.62407 0.652083 8.16238 1.20705 6.90178C1.80884 5.58115 2.59446 4.46012 3.88995 3.3601C5.00855 2.35912 6.37689 1.57425 7.90824 1.08051L7.98281 1.0595C9.63903 0.502739 11.5554 0.160576 13.5585 0.120057H13.5793C15.7072 0.0405191 16.5848 0 20.747 0H25.4885ZM25.5353 3.60171H20.7019C16.701 3.60171 15.846 3.64223 13.7648 3.72177C11.5224 3.80131 10.2963 4.12246 9.48642 4.40159C8.39904 4.76176 7.63596 5.20147 6.82779 5.9023C6.01963 6.60314 5.50975 7.26345 5.09353 8.2029C4.7935 8.90373 4.39982 9.96323 4.30791 11.9247C4.21599 13.7255 4.16917 14.4459 4.16917 17.9275V22.089C4.16917 25.5706 4.21599 26.291 4.30791 28.0918C4.39982 30.0323 4.77096 31.0933 5.09353 31.7941C5.50975 32.7351 6.01789 33.3954 6.82779 34.0947C7.63769 34.794 8.40077 35.2352 9.48642 35.5954C10.2963 35.876 11.5207 36.1957 13.7874 36.2752C16.0298 36.3758 16.8397 36.3953 21.8344 36.3953H24.4011C29.4183 36.3953 30.2057 36.3758 32.4706 36.2752C34.713 36.1957 35.9391 35.8745 36.749 35.5954C37.8364 35.2352 38.5995 34.7955 39.4077 34.0947C40.2158 33.3939 40.7257 32.7335 41.1419 31.7941C41.4662 31.0933 41.8356 30.0338 41.9275 28.0918C42.0437 26.1304 42.0663 25.4506 42.0663 21.109V18.9075C42.0663 14.5659 42.0437 13.8651 41.9275 11.9037C41.8356 9.96323 41.4645 8.90223 41.1419 8.2014C40.75 7.29947 40.1586 6.5296 39.4094 5.9023L39.4077 5.9008C38.6793 5.25099 37.7913 4.73925 36.7976 4.4136L36.749 4.40009C35.4796 3.98589 34.0124 3.73828 32.4793 3.72027H32.4706C30.6878 3.64223 28.6015 3.59721 26.5013 3.59721C26.1614 3.59721 25.8214 3.59871 25.4815 3.60021H25.5336L25.5353 3.60171ZM23.1299 9.72462C29.6871 9.72462 35.0044 14.3243 35.0044 20C35.0044 25.6757 29.6888 30.2754 23.1299 30.2754C16.5726 30.2754 11.2554 25.6757 11.2554 20C11.2554 14.3243 16.5709 9.72462 23.1299 9.72462ZM23.1299 13.3263C18.8705 13.3263 15.4176 16.3143 15.4176 20C15.4176 23.6858 18.8705 26.6737 23.1299 26.6737C27.3892 26.6737 30.8421 23.6858 30.8421 20C30.8421 16.3143 27.3892 13.3263 23.1299 13.3263ZM35.4553 6.92279C36.9884 6.92279 38.2301 7.9973 38.2301 9.32393C38.2301 10.6506 36.9884 11.7251 35.4553 11.7251C33.9222 11.7251 32.6805 10.6506 32.6805 9.32393C32.6805 7.9973 33.9222 6.92279 35.4553 6.92279Z" fill="white"/>
</svg>
