<svg width="47" height="40" viewBox="0 0 47 40" fill="none" xmlns="http://www.w3.org/2000/svg">
<path d="M23.1151 0C10.3397 0.040498 0 8.97855 0 19.9985C0 28.3966 6.00583 35.5872 14.5152 38.5496L14.6701 38.5976C14.4387 37.0181 14.2751 34.5973 14.7397 32.8574L17.4538 22.9174C17.4538 22.9174 16.7579 21.7174 16.7579 19.958C16.7579 17.1786 18.6369 15.1177 20.9804 15.1177C22.9516 15.1177 23.9259 16.3972 23.9259 17.9181C23.9259 19.6385 22.6506 22.1974 21.9773 24.5778C21.4205 26.5772 23.1377 28.1971 25.4343 28.1971C29.5629 28.1971 32.7189 24.4578 32.7189 19.058C32.7189 14.2583 28.7295 10.939 23.0229 10.939C22.8907 10.933 22.7376 10.93 22.5827 10.93C17.0345 10.93 12.5388 14.8073 12.5388 19.589C12.5388 19.592 12.5388 19.595 12.5388 19.598C12.5388 21.3184 13.3043 23.1573 14.256 24.1578C14.4422 24.3573 14.4648 24.5373 14.3952 24.7383L13.7462 26.9987C13.654 27.3586 13.3983 27.4591 12.9807 27.2791C10.0578 26.0987 8.24844 22.4794 8.24844 19.52C8.24844 13.2203 13.5844 7.44113 23.6058 7.44113C31.6315 7.44113 37.9192 12.3609 37.9192 18.9801C37.9192 25.8797 32.8615 31.4189 25.8571 31.4189C23.5379 31.4189 21.3109 30.3585 20.568 29.1195L19.1066 33.8593C18.3567 35.8647 17.3807 37.6061 16.1698 39.2035L16.229 39.1195C18.2645 39.6775 20.6063 40 23.0334 40C35.8453 40 46.2302 31.0454 46.2302 20.0015C46.2302 8.98155 35.8923 0.0434976 23.1221 0.00299963H23.1169L23.1151 0Z" fill="white"/>
</svg>
