<svg width="47" height="34" viewBox="0 0 47 34" fill="none" xmlns="http://www.w3.org/2000/svg">
<path d="M46.2268 3.93261C44.4932 4.70627 42.7596 4.97932 40.726 5.23041C42.7596 4.1837 44.1933 2.61442 44.7705 0.522569C43.0283 1.47669 40.9982 2.20327 38.8364 2.59716L38.715 2.61599C36.9277 1.02474 34.485 0.0329549 31.7875 0H31.7806C26.8571 0 22.5352 3.93418 22.5352 8.64202C22.5352 9.41567 22.5352 9.93981 22.8351 10.4624C14.8987 10.1831 7.89314 6.79498 3.22625 1.61322L3.18811 1.56928C2.45133 2.70858 2.01619 4.07699 2.01619 5.53799C2.01619 5.70904 2.02139 5.88009 2.03353 6.04957L2.03179 6.02603C2.09074 8.97314 3.78101 11.5515 6.31902 13.058L6.35542 13.0784C4.89919 13.0784 3.46549 12.5558 2.00926 12.0317C2.00926 16.2169 5.1991 19.627 9.521 20.4006C8.66633 20.6721 7.78739 20.6721 6.93272 20.6721C6.35542 20.6721 5.7764 20.6721 5.1991 20.4006C6.35542 23.8107 9.82265 26.4267 14.1671 26.4267C11.0466 28.71 7.03153 30.0909 2.6611 30.0909C2.53801 30.0909 2.41492 30.0894 2.29184 30.0878H2.31091H0C4.09999 32.4558 9.0772 33.8996 14.4167 34H14.4462C31.7823 34 41.3293 20.9232 41.3293 9.66519V8.61848C43.3178 7.37875 44.9578 5.81418 46.1886 3.99852L46.2302 3.93261H46.2268Z" fill="white"/>
</svg>
